PathFileType  4	(X/Y/Z) C:\Users\Jenny Yong\Documents\NMBL\GaitRetraining\Subject20\WeekOne\
DataRate	CameraRate	NumFrames	NumMarkers	Units	OrigDataRate	OrigDataStartFrame	OrigNumFrames
  200.0		  200.0		    8		     42		 mm	  200.0	      181	    289
Frame#	Time	R.Shoulder			L.Shoulder			R.Clavicle			L.Clavicle			R.Biceps			R.Elbow			R.Forearm			R.Wrist			L.Biceps			L.Elbow			L.Forearm			L.Wrist			R.ASIS			L.ASIS			R.PSIS			S2			L.PSIS			R.TH1			R.TH2			R.TH3			R.Knee			R.SH1			R.SH2			R.SH3			R.SH4			R.Ankle			R.MAnkle			R.Heel			R.MT5			R.Toe			L.TH1			L.TH2			L.TH3			L.TH4			L.Knee			L.SH1			L.SH2			L.SH3			L.Ankle			L.Heel			L.MT5			L.Toe			
		X1	Y1	Z1	X2	Y2	Z2	X3	Y3	Z3	X4	Y4	Z4	X5	Y5	Z5	X6	Y6	Z6	X7	Y7	Z7	X8	Y8	Z8	X9	Y9	Z9	X10	Y10	Z10	X11	Y11	Z11	X12	Y12	Z12	X13	Y13	Z13	X14	Y14	Z14	X15	Y15	Z15	X16	Y16	Z16	X17	Y17	Z17	X18	Y18	Z18	X19	Y19	Z19	X20	Y20	Z20	X21	Y21	Z21	X22	Y22	Z22	X23	Y23	Z23	X24	Y24	Z24	X25	Y25	Z25	X26	Y26	Z26	X27	Y27	Z27	X28	Y28	Z28	X29	Y29	Z29	X30	Y30	Z30	X31	Y31	Z31	X32	Y32	Z32	X33	Y33	Z33	X34	Y34	Z34	X35	Y35	Z35	X36	Y36	Z36	X37	Y37	Z37	X38	Y38	Z38	X39	Y39	Z39	X40	Y40	Z40	X41	Y41	Z41	X42	Y42	Z42	

181	0.90000	1957.048	1381.255	-20.411	2064.411	1369.916	-322.858	2052.582	1328.061	-133.600	2066.229	1327.505	-175.763	1796.976	1280.986	-7.472	1728.163	1176.943	75.767	1833.923	1143.898	11.670	1938.995	1110.407	51.550	2077.843	1202.074	-408.395	2076.070	1086.641	-458.705	2131.266	1072.369	-371.089	2194.215	1176.487	-297.459	2003.298	954.321	-30.934	2024.603	920.942	-279.233	1838.477	978.293	-114.607	1840.656	971.207	-157.229	1848.213	982.870	-210.385	2038.532	740.988	19.842	1959.241	690.987	-26.053	2032.437	581.510	-46.167	2124.890	528.916	-40.759	2120.072	446.513	-45.620	2056.634	352.808	-36.806	2047.648	492.376	-54.352	1980.184	386.681	-60.398	1936.591	200.285	-91.230	1974.618	213.190	-168.477	1867.092	209.071	-142.881	1990.733	80.927	-88.982	2050.955	92.022	-139.637	1943.026	739.192	-318.644	1897.121	616.591	-295.365	1850.219	780.812	-338.901	1787.558	669.435	-295.228	1778.366	501.729	-283.233	1758.787	400.808	-262.508	1687.584	456.904	-292.234	1624.329	356.352	-299.540	1555.285	175.710	-274.483	1468.362	182.653	-232.064	1593.520	53.323	-281.931	1633.424	46.122	-219.962
182	0.90500	1969.375	1383.846	-20.417	2080.121	1373.065	-321.010	2066.270	1330.939	-132.089	2080.204	1330.379	-173.997	1809.540	1285.602	-7.206	1739.401	1182.099	76.028	1846.530	1149.026	13.161	1946.264	1111.855	52.022	2094.271	1205.144	-406.288	2092.154	1089.252	-456.462	2145.377	1074.853	-367.987	2208.561	1179.785	-294.293	2018.211	958.480	-29.853	2040.961	921.905	-276.314	1854.429	981.988	-114.403	1855.997	974.877	-156.661	1864.935	985.727	-210.284	2052.882	744.614	21.464	1971.930	693.946	-24.407	2044.620	584.715	-44.155	2134.546	537.854	-39.274	2136.453	446.847	-44.499	2077.808	350.553	-35.804	2061.999	489.182	-53.439	1999.804	381.153	-59.716	1964.285	189.367	-91.233	2002.384	207.433	-167.872	1895.091	197.542	-142.203	2026.276	76.125	-88.926	2085.482	90.808	-139.219	1956.684	740.635	-316.930	1907.864	619.017	-293.469	1864.885	784.528	-336.497	1798.887	674.049	-294.574	1782.425	506.411	-281.339	1766.497	406.907	-263.245	1693.795	462.770	-291.181	1630.927	362.160	-298.683	1564.205	174.402	-273.180	1477.404	191.024	-231.327	1594.204	55.637	-279.828	1634.518	44.922	-220.129
183	0.91000	1981.503	1385.917	-20.116	2095.443	1375.828	-319.035	2079.965	1333.652	-130.604	2094.541	1333.212	-172.387	1821.825	1289.956	-6.902	1750.775	1187.016	76.349	1857.561	1153.091	14.141	1957.110	1115.703	53.711	2109.793	1207.605	-404.130	2107.817	1091.451	-454.103	2160.295	1077.667	-364.949	2222.258	1182.557	-291.360	2032.137	961.873	-28.907	2055.758	921.696	-273.675	1870.476	987.148	-113.856	1872.228	977.935	-156.295	1880.811	988.172	-209.589	2067.116	747.953	22.104	1984.760	697.822	-21.873	2056.515	586.798	-42.059	2149.525	530.872	-41.823	2153.055	447.434	-43.477	2099.021	348.040	-34.410	2076.289	486.197	-52.390	2019.333	375.025	-59.058	1993.842	182.189	-90.039	2030.210	201.752	-167.015	1923.657	185.882	-141.434	2062.182	71.851	-88.754	2120.182	90.592	-139.187	1969.423	741.564	-315.222	1918.775	621.313	-291.736	1878.536	786.768	-335.557	1810.454	678.499	-294.178	1789.544	511.601	-280.870	1774.466	413.043	-264.101	1699.938	468.256	-289.861	1637.913	367.838	-298.074	1572.329	178.533	-273.750	1487.120	199.454	-230.855	1596.742	57.882	-279.611	1637.818	45.304	-220.525
184	0.91500	1995.190	1389.186	-20.197	2110.540	1378.445	-317.172	2093.943	1336.153	-129.272	2108.662	1335.843	-170.777	1834.102	1294.087	-6.375	1762.234	1191.924	77.176	1869.110	1156.960	15.363	1969.261	1119.977	55.887	2125.324	1210.079	-402.079	2122.946	1093.605	-451.923	2174.905	1080.331	-362.123	2236.675	1185.493	-288.565	2047.291	965.695	-27.837	2071.548	922.610	-270.772	1886.644	992.582	-113.436	1888.820	980.923	-155.708	1897.015	991.033	-208.945	2080.380	750.256	23.247	1996.868	701.371	-18.575	2068.236	591.979	-40.306	2162.436	531.745	-40.388	2169.139	447.581	-42.489	2119.874	345.760	-33.388	2090.206	479.272	-51.581	2038.981	369.057	-57.722	2023.058	174.558	-89.106	2058.147	196.575	-165.797	1952.339	174.408	-140.345	2098.028	68.559	-88.461	2154.789	91.730	-138.330	1982.920	742.632	-313.717	1929.098	622.998	-290.082	1893.378	789.632	-335.450	1822.369	683.142	-293.749	1798.920	517.871	-280.865	1782.651	418.382	-264.452	1707.211	474.024	-288.830	1645.265	373.233	-297.509	1580.254	182.791	-275.465	1497.164	207.844	-230.940	1599.625	60.526	-279.689	1642.056	46.813	-221.255
185	0.92000	2007.256	1390.783	-19.957	2126.358	1381.078	-315.325	2107.858	1338.610	-127.706	2122.797	1338.281	-169.146	1846.451	1297.982	-5.799	1774.144	1196.458	77.929	1881.321	1161.140	16.694	1980.650	1123.743	57.831	2140.774	1212.452	-400.089	2138.323	1095.662	-449.858	2189.036	1082.588	-359.526	2250.188	1187.806	-286.016	2061.712	968.636	-26.503	2087.066	923.467	-267.933	1901.075	996.933	-113.260	1904.300	984.216	-155.056	1912.895	993.674	-208.483	2094.158	752.583	24.447	2009.241	701.807	-18.210	2079.328	593.808	-37.198	2175.017	532.031	-39.155	2184.854	447.319	-41.290	2140.635	343.427	-32.329	2107.358	476.668	-53.911	2059.119	363.288	-56.284	2053.148	169.957	-88.076	2085.654	191.667	-164.667	1981.082	162.938	-138.093	2133.686	65.608	-87.740	2188.223	92.052	-137.925	1996.557	744.043	-312.071	1941.011	625.604	-288.702	1907.856	792.455	-333.737	1834.747	686.299	-292.616	1806.290	521.670	-280.223	1790.563	423.123	-264.553	1715.838	479.487	-288.284	1653.938	378.680	-297.344	1588.702	187.846	-276.059	1507.356	216.581	-230.811	1603.097	63.885	-279.676	1646.100	48.060	-221.699
186	0.92500	2020.227	1393.010	-19.797	2141.587	1383.426	-313.432	2121.561	1340.740	-126.335	2136.742	1340.548	-167.616	1859.001	1301.555	-4.937	1786.186	1200.790	78.825	1893.345	1164.930	18.346	1992.070	1127.261	59.704	2156.422	1214.914	-398.131	2153.320	1097.532	-447.922	2203.341	1084.738	-357.091	2264.254	1190.101	-283.539	2076.103	971.489	-25.624	2102.635	924.259	-265.280	1915.831	1000.328	-112.923	1919.893	987.433	-154.267	1928.904	995.832	-208.046	2107.281	754.208	25.424	2022.467	705.653	-15.560	2089.293	592.309	-33.279	2189.459	531.442	-39.937	2200.840	447.255	-40.034	2161.788	341.411	-30.962	2122.309	470.812	-49.566	2078.785	357.681	-54.419	2082.008	163.726	-85.904	2112.587	186.813	-163.065	2010.130	153.002	-134.227	2170.328	64.914	-87.290	2221.938	94.412	-137.939	2009.685	744.983	-310.615	1951.849	627.304	-287.212	1922.008	794.864	-332.710	1847.153	690.269	-291.571	1815.595	526.724	-279.707	1799.515	427.365	-264.711	1725.151	484.346	-287.770	1661.950	383.943	-296.666	1597.105	193.177	-276.890	1517.760	225.564	-230.826	1606.508	67.667	-279.630	1650.123	49.873	-222.067
187	0.93000	2033.582	1394.989	-19.646	2156.489	1385.448	-311.536	2135.089	1342.706	-125.008	2150.781	1342.458	-166.069	1871.758	1304.874	-3.971	1798.102	1204.815	79.810	1904.308	1167.922	19.501	2007.604	1132.491	64.345	2171.532	1216.769	-396.553	2168.206	1099.339	-446.133	2217.200	1086.569	-354.894	2277.833	1192.076	-281.304	2090.193	973.223	-24.096	2117.552	924.937	-262.807	1930.430	1002.824	-112.542	1936.001	989.794	-153.944	1944.801	998.221	-207.217	2120.665	755.514	26.470	2034.969	707.194	-13.161	2100.556	595.878	-31.061	2201.373	530.080	-37.191	2216.805	447.250	-38.681	2182.295	339.420	-29.210	2136.675	467.129	-48.498	2098.717	351.864	-52.379	2111.402	157.342	-83.184	2139.167	182.294	-161.300	2039.046	141.948	-131.505	2205.578	64.279	-86.663	2254.462	97.305	-138.016	2022.972	745.976	-309.461	1963.912	629.666	-286.054	1936.035	796.903	-331.708	1859.536	693.967	-290.621	1825.407	531.231	-279.173	1809.013	431.569	-264.302	1734.501	488.573	-286.780	1671.486	388.780	-296.746	1606.454	198.211	-277.184	1528.568	233.643	-231.127	1610.441	72.136	-280.069	1653.440	51.999	-222.576
188	0.93500	2047.154	1397.159	-19.610	2171.440	1387.268	-309.864	2149.108	1344.630	-123.604	2164.780	1344.329	-164.692	1884.193	1307.477	-2.941	1810.280	1208.772	81.211	1916.494	1170.943	21.139	2016.434	1134.387	63.950	2186.696	1218.777	-394.666	2183.058	1101.081	-444.404	2231.335	1088.438	-352.775	2291.910	1194.017	-279.135	2104.501	975.512	-23.112	2132.477	925.503	-260.509	1945.992	1006.210	-112.503	1950.372	992.696	-152.914	1960.294	1000.309	-206.560	2134.334	756.500	27.630	2047.262	709.204	-10.737	2111.045	596.241	-27.959	2212.685	528.972	-35.719	2231.786	446.620	-37.389	2202.518	337.471	-27.333	2150.327	462.994	-47.257	2118.507	346.034	-50.081	2142.533	147.816	-81.061	2165.482	178.122	-159.188	2069.704	131.331	-127.489	2239.456	63.443	-85.459	2286.381	101.075	-137.927	2036.735	747.529	-308.262	1975.448	631.505	-284.937	1950.717	799.851	-330.471	1872.495	696.660	-289.392	1836.174	535.265	-278.557	1819.030	435.166	-263.602	1745.183	492.785	-286.240	1681.563	393.605	-296.632	1615.053	202.914	-278.287	1539.500	241.978	-231.542	1613.434	76.343	-279.864	1656.817	53.982	-222.857
